<svg xmlns="http://www.w3.org/2000/svg" viewBox="0 0 24 24" fill="none"><path style="fill:none;stroke-width:2.646;stroke-linecap:round;stroke-linejoin:round;stroke:currentColor;stroke-opacity:1;" transform="matrix(0.40373,0.00000,0.00000,0.40373,-137.670,-98.193)" d="M 369.59 253.46 C 369.66 253.16 369.69 253 369.69 252.98 C 369.69 252.97 369.7 253 369.7 253.08 C 369.7 253.16 369.71 253.7 369.73 254.71 C 369.75 255.71 369.76 256.64 369.76 257.49 C 369.76 258.33 369.75 259.13 369.72 259.89 C 369.7 260.65 369.66 261.25 369.61 261.69 C 369.56 262.14 369.53 262.41 369.5 262.5 C 369.48 262.6 369.47 262.65 369.47 262.67 "/><path style="fill:none;stroke-width:2.646;stroke-linecap:round;stroke-linejoin:round;stroke:currentColor;stroke-opacity:1;" transform="matrix(0.40373,0.00000,0.00000,0.40373,-137.670,-98.193)" d="M 373.91 261.64 C 373.83 261.86 373.79 261.97 373.79 261.98 L 373.78 261.98 L 373.79 261.98 C 373.79 261.97 373.81 261.92 373.85 261.81 C 373.89 261.7 374.09 261.39 374.46 260.89 C 374.82 260.38 375.13 259.94 375.38 259.54 C 375.62 259.15 375.86 258.73 376.08 258.27 C 376.3 257.82 376.48 257.46 376.62 257.2 C 376.77 256.93 376.86 256.78 376.9 256.74 C 376.95 256.7 377 256.75 377.06 256.92 C 377.11 257.08 377.19 257.36 377.28 257.77 C 377.38 258.17 377.46 258.62 377.56 259.1 C 377.65 259.57 377.75 260.03 377.86 260.48 C 377.96 260.92 378.07 261.3 378.17 261.62 C 378.27 261.93 378.35 262.15 378.42 262.27 C 378.47 262.4 378.52 262.48 378.53 262.51 L 378.54 262.53 L 378.54 262.52 C 378.52 262.49 378.5 262.43 378.45 262.32 C 378.41 262.2 378.32 262.06 378.17 261.87 C 378.03 261.68 377.84 261.48 377.61 261.27 C 377.38 261.06 377.08 260.86 376.69 260.68 C 376.3 260.48 375.81 260.31 375.23 260.16 C 374.63 260.01 374.08 259.89 373.56 259.8 C 373.03 259.72 372.68 259.66 372.49 259.63 C 372.32 259.59 372.22 259.58 372.21 259.57 C 372.19 259.57 372.19 259.57 372.22 259.56 C 372.24 259.56 372.42 259.56 372.76 259.54 C 373.1 259.51 373.58 259.46 374.22 259.38 C 374.87 259.29 375.55 259.18 376.29 259.04 C 377.03 258.9 377.73 258.75 378.4 258.6 C 379.07 258.44 379.64 258.29 380.12 258.16 C 380.6 258.03 380.9 257.94 381.03 257.89 C 381.15 257.85 381.22 257.82 381.24 257.82 C 381.24 257.82 381.25 257.82 381.24 257.82 C 381.24 257.82 381.21 257.82 381.16 257.82 C 381.1 257.82 380.94 257.92 380.68 258.11 C 380.42 258.3 379.84 258.73 378.96 259.39 C 378.09 260.06 377.41 260.56 376.93 260.88 C 376.45 261.21 376.01 261.49 375.59 261.7 C 375.18 261.92 374.88 262.05 374.69 262.11 C 374.5 262.16 374.43 262.17 374.49 262.15 C 374.57 262.11 374.81 261.98 375.22 261.77 "/><path style="fill:none;stroke-width:2.646;stroke-linecap:round;stroke-linejoin:round;stroke:currentColor;stroke-opacity:1;" transform="matrix(0.40373,0.00000,0.00000,0.40373,-137.670,-98.193)" d="M 360.52 262.63 C 360.22 262.73 360.04 262.61 359.99 262.3 C 359.94 261.97 359.88 261.62 359.81 261.21 C 359.74 260.8 359.6 260.21 359.39 259.44 C 359.18 258.67 359.07 258.24 359.05 258.15 C 359.03 258.07 359.11 258.04 359.27 258.08 C 359.45 258.12 359.72 258.22 360.09 258.4 C 360.46 258.57 360.87 258.75 361.3 258.95 C 361.74 259.13 362.18 259.31 362.63 259.47 C 363.09 259.63 363.5 259.76 363.86 259.87 C 364.23 259.97 364.48 260.06 364.61 260.12 C 364.74 260.19 364.8 260.25 364.78 260.3 C 364.75 260.35 364.62 260.4 364.38 260.45 C 364.13 260.5 363.81 260.57 363.4 260.65 C 362.99 260.72 362.55 260.79 362.08 260.86 C 361.62 260.93 361.14 260.98 360.68 261.03 C 360.21 261.08 359.75 261.12 359.32 261.15 C 358.89 261.18 358.66 261.19 358.64 261.19 C 358.61 261.19 358.61 261.19 358.62 261.19 C 358.63 261.19 358.74 261.14 358.94 261.07 C 359.15 261 359.45 260.81 359.83 260.5 C 360.21 260.2 360.59 259.82 361 259.37 C 361.41 258.92 361.74 258.47 362.01 258.02 C 362.28 257.57 362.46 257.2 362.57 256.9 C 362.68 256.59 362.73 256.45 362.71 256.46 C 362.69 256.47 362.64 256.5 362.57 256.55 C 362.5 256.6 362.39 256.84 362.26 257.28 C 362.12 257.72 361.99 258.25 361.87 258.88 C 361.75 259.51 361.65 260.12 361.57 260.72 C 361.49 261.31 361.42 261.93 361.35 262.58 C 361.28 263.22 361.24 263.56 361.24 263.59 L 361.23 263.64 L 361.24 263.63 C 361.24 263.6 361.27 263.29 361.32 262.71 "/><path style="fill:none;stroke-width:2.646;stroke-linecap:round;stroke-linejoin:round;stroke:currentColor;stroke-opacity:1;" transform="matrix(0.40373,0.00000,0.00000,0.40373,-137.670,-98.193)" d="M 380.75 267.62 C 380.83 267.71 381 267.58 381.24 267.23 C 381.48 266.88 381.77 266.49 382.12 266.06 C 382.45 265.63 382.9 265.14 383.44 264.56 C 383.99 264 384.53 263.45 385.06 262.93 C 385.58 262.4 386.12 261.85 386.67 261.27 C 387.22 260.69 387.5 260.38 387.52 260.35 C 387.54 260.3 387.44 260.34 387.19 260.47 "/><path style="fill:none;stroke-width:2.646;stroke-linecap:round;stroke-linejoin:round;stroke:currentColor;stroke-opacity:1;" transform="matrix(0.40373,0.00000,0.00000,0.40373,-137.670,-98.193)" d="M 343.36 276.72 C 343.58 274.43 344.08 272.2 344.86 270.03 C 345.64 267.87 346.69 265.84 347.98 263.94 C 349.28 262.03 350.79 260.32 352.53 258.8 C 354.25 257.28 356.14 256 358.2 254.96 C 360.25 253.92 362.4 253.15 364.64 252.65 C 366.9 252.15 369.17 251.94 371.47 252.01 C 373.77 252.09 376.02 252.45 378.24 253.1 C 380.45 253.74 382.54 254.65 384.52 255.83 C 386.5 257 388.3 258.4 389.93 260.04 C 391.55 261.67 392.95 263.47 394.12 265.46 C 395.29 267.44 396.19 269.54 396.83 271.75 C 397.47 273.96 397.82 276.22 397.89 278.52 "/><path style="fill:none;stroke-width:2.646;stroke-linecap:round;stroke-linejoin:round;stroke:currentColor;stroke-opacity:1;" transform="matrix(0.40373,0.00000,0.00000,0.40373,-137.670,-98.193)" d="M 350.15 262.77 C 349.89 262.53 349.74 262.39 349.7 262.36 C 349.68 262.33 349.68 262.33 349.72 262.34 C 349.76 262.35 349.87 262.38 350.07 262.45 C 350.27 262.5 350.63 262.68 351.15 262.97 C 351.67 263.26 352.31 263.66 353.09 264.16 C 353.85 264.66 354.72 265.24 355.67 265.89 C 356.63 266.54 357.45 267.12 358.12 267.63 C 358.79 268.13 359.25 268.49 359.5 268.69 C 359.73 268.9 359.85 268.99 359.85 268.96 C 359.84 268.93 359.81 268.81 359.76 268.61 "/><path style="fill:none;stroke-width:2.646;stroke-linecap:round;stroke-linejoin:round;stroke:currentColor;stroke-opacity:1;" transform="matrix(0.40373,0.00000,0.00000,0.40373,-137.670,-98.193)" d="M 357.47 271.52 C 358.71 269.64 360.29 268.08 362.21 266.87 C 364.11 265.65 366.19 264.88 368.43 264.55 C 370.67 264.21 372.88 264.35 375.06 264.96 C 377.24 265.56 379.21 266.58 380.96 268.03 C 382.7 269.47 384.07 271.2 385.09 273.22 "/><path style="fill:none;stroke-width:2.646;stroke-linecap:round;stroke-linejoin:round;stroke:currentColor;stroke-opacity:1;" transform="matrix(0.40373,0.00000,0.00000,0.40373,-137.670,-98.193)" d="M 388.81 274.26 C 388.81 274.55 388.81 274.7 388.81 274.72 L 388.81 274.72 L 388.81 274.67 C 388.81 274.63 388.81 274.31 388.8 273.7 C 388.79 273.09 388.8 272.49 388.81 271.9 C 388.83 271.29 388.85 270.69 388.89 270.06 C 388.93 269.44 388.97 268.97 389.02 268.66 C 389.07 268.35 389.13 268.2 389.19 268.22 C 389.26 268.23 389.38 268.38 389.57 268.67 C 389.75 268.96 390 269.3 390.3 269.71 C 390.59 270.13 390.91 270.51 391.25 270.86 C 391.59 271.21 391.9 271.52 392.21 271.79 C 392.5 272.06 392.71 272.25 392.84 272.36 C 392.96 272.46 393.05 272.54 393.1 272.58 C 393.16 272.63 392.97 272.65 392.54 272.65 C 392.12 272.65 391.4 272.65 390.39 272.65 C 389.37 272.66 388.79 272.62 388.61 272.55 C 388.44 272.49 388.33 272.38 388.29 272.26 C 388.25 272.14 388.28 271.99 388.38 271.81 C 388.49 271.62 388.7 271.4 389.01 271.13 C 389.32 270.86 389.66 270.56 390.04 270.21 C 390.42 269.88 390.77 269.54 391.09 269.21 C 391.42 268.87 391.66 268.59 391.83 268.36 C 391.99 268.13 392.09 267.98 392.12 267.9 C 392.15 267.83 392.17 267.79 392.18 267.77 C 392.18 267.76 392.17 267.77 392.14 267.83 C 392.11 267.88 392.02 268.05 391.87 268.33 C 391.72 268.61 391.55 269.01 391.35 269.5 C 391.16 270 390.87 270.8 390.49 271.9 C 390.11 272.99 389.85 273.75 389.7 274.14 C 389.55 274.54 389.43 274.82 389.34 274.99 C 389.26 275.15 389.24 275.21 389.27 275.15 C 389.33 275.07 389.5 274.82 389.79 274.39 "/><path style="fill:none;stroke-width:2.646;stroke-linecap:round;stroke-linejoin:round;stroke:currentColor;stroke-opacity:1;" transform="matrix(0.40373,0.00000,0.00000,0.40373,-137.670,-98.193)" d="M 351.44 276.29 C 351.53 276.49 351.53 276.59 351.44 276.58 C 351.38 276.58 351.26 276.51 351.07 276.38 C 350.88 276.24 350.65 276.08 350.37 275.89 C 350.09 275.7 349.75 275.49 349.36 275.27 C 348.97 275.06 348.6 274.85 348.23 274.66 C 347.87 274.48 347.59 274.31 347.39 274.16 C 347.2 274.01 347.08 273.87 347.06 273.73 C 347.03 273.6 347.08 273.47 347.23 273.35 C 347.37 273.22 347.57 273.09 347.82 272.94 C 348.06 272.8 348.33 272.66 348.63 272.51 C 348.93 272.36 349.22 272.22 349.5 272.08 C 349.77 271.93 350.1 271.75 350.45 271.55 C 350.81 271.33 351.01 271.29 351.05 271.42 C 351.08 271.55 351.08 271.77 351.03 272.09 C 350.97 272.41 350.88 272.77 350.76 273.18 C 350.65 273.59 350.5 274.03 350.35 274.5 C 350.19 274.97 350.03 275.43 349.89 275.87 C 349.74 276.31 349.63 276.67 349.54 276.95 C 349.46 277.23 349.41 277.39 349.4 277.42 C 349.39 277.45 349.39 277.44 349.39 277.4 C 349.39 277.35 349.38 277.13 349.36 276.74 C 349.36 276.34 349.31 275.91 349.22 275.45 C 349.13 274.99 349.01 274.51 348.85 274.03 C 348.7 273.54 348.54 273.07 348.37 272.64 C 348.21 272.19 348.08 271.83 347.99 271.54 C 347.89 271.24 347.84 271.06 347.82 270.99 C 347.8 270.91 347.79 270.87 347.79 270.85 C 347.78 270.83 347.8 270.84 347.85 270.9 C 347.91 270.95 348.02 271.07 348.2 271.26 C 348.38 271.45 348.62 271.75 348.93 272.16 C 349.24 272.57 349.5 272.95 349.74 273.29 C 349.97 273.63 350.23 274.01 350.53 274.43 C 350.83 274.85 351.04 275.12 351.17 275.27 C 351.29 275.4 351.36 275.47 351.35 275.45 C 351.34 275.42 351.32 275.35 351.28 275.21 "/><path style="fill:none;stroke-width:2.848;stroke-linecap:round;stroke-linejoin:round;stroke:currentColor;stroke-opacity:1;" transform="matrix(0.40373,0.00000,0.00000,0.40373,-137.670,-98.193)" d="M 366.94 279.74 C 368.01 279.05 369.02 278.41 369.96 277.81 C 370.59 277.4 371.04 277.11 371.28 276.92 C 371.53 276.74 371.89 276.44 372.36 276.02 C 372.84 275.6 373.36 275.2 373.91 274.84 C 374.47 274.46 374.95 274.17 375.37 273.95 C 375.79 273.73 376.31 273.42 376.94 273.04 C 377.57 272.66 378 272.41 378.23 272.3 C 378.65 272.09 378.87 271.96 378.9 271.92 "/><path style="fill:none;stroke-width:2.848;stroke-linecap:round;stroke-linejoin:round;stroke:currentColor;stroke-opacity:1;" transform="matrix(0.40373,0.00000,0.00000,0.40373,-137.670,-98.193)" d="M 369.67 282.89 C 369.68 282.63 369.86 282.34 370.22 281.99 C 370.58 281.66 370.85 281.39 371.01 281.21 C 371.18 281.02 371.38 280.77 371.63 280.44 C 371.89 280.11 372.17 279.76 372.47 279.38 C 372.79 279.01 373.05 278.69 373.25 278.44 C 373.45 278.19 373.62 277.98 373.75 277.83 C 373.89 277.69 374.16 277.43 374.57 277.04 C 374.97 276.66 375.39 276.25 375.83 275.8 C 376.27 275.35 376.65 274.93 376.99 274.53 C 377.33 274.13 377.63 273.79 377.89 273.52 C 378.14 273.25 378.33 273.07 378.45 272.99 "/><path style="stroke:none;fill-rule:nonzero;fill:currentColor;fill-opacity:1;" transform="matrix(0.74108,0.00000,0.00000,0.74108,-137.670,-98.529)" d="M 187.48 154.25 C 187.38 153.25 187.37 152.25 187.46 151.25 C 187.48 151.03 187.32 150.83 187.1 150.81 C 186.88 150.79 186.68 150.95 186.66 151.17 C 186.55 152.29 186.57 153.41 186.7 154.52 C 186.96 154.41 187.22 154.32 187.48 154.25 Z M 217.13 153.88 C 217.18 153.31 217.19 152.74 217.17 152.18 C 217.17 151.95 216.98 151.78 216.76 151.79 C 216.53 151.79 216.36 151.98 216.36 152.2 C 216.38 152.79 216.36 153.38 216.31 153.96 C 216.58 153.92 216.86 153.89 217.13 153.88 Z M 217.13 153.88 "/><path style="fill-rule:nonzero;fill:currentColor;fill-opacity:0.1;stroke-width:2.848;stroke-linecap:round;stroke-linejoin:round;stroke:currentColor;stroke-opacity:1;" transform="matrix(0.40373,0.00000,0.00000,0.40373,-137.670,-98.193)" d="M 366.75 280.34 C 366.99 279.3 368.03 278.64 369.07 278.87 C 370.12 279.11 370.78 280.15 370.54 281.2 C 370.31 282.24 369.27 282.9 368.22 282.67 C 367.17 282.43 366.51 281.39 366.75 280.34 Z M 366.75 280.34 "/><path style="stroke:none;fill-rule:nonzero;fill:currentColor;fill-opacity:1;" transform="matrix(0.74108,0.00000,0.00000,0.74108,-137.670,-98.529)" d="M 196.43 160.39 C 196.51 160.46 196.6 160.52 196.69 160.59 C 196.67 160.46 196.66 160.34 196.65 160.22 C 196.57 160.28 196.5 160.34 196.43 160.39 Z M 193.83 154.66 C 193.66 153.72 193.66 152.75 193.82 151.81 C 193.85 151.59 193.7 151.38 193.48 151.35 C 193.26 151.31 193.05 151.46 193.02 151.68 C 192.83 152.77 192.85 153.88 193.07 154.96 C 193.13 154.94 193.2 154.92 193.27 154.91 C 193.46 154.86 193.64 154.85 193.83 154.85 C 193.83 154.79 193.83 154.72 193.83 154.66 Z M 193.82 151.81 C 194.01 150.66 194.44 149.57 195.08 148.6 C 195.2 148.41 195.15 148.16 194.97 148.04 C 194.78 147.92 194.53 147.97 194.41 148.16 C 193.7 149.22 193.23 150.42 193.02 151.68 C 192.98 151.9 193.13 152.11 193.35 152.14 C 193.57 152.18 193.78 152.03 193.82 151.81 Z M 209.43 149.48 C 209.95 150.53 210.24 151.67 210.29 152.83 C 210.3 153.05 210.49 153.23 210.71 153.21 C 210.94 153.21 211.11 153.02 211.1 152.79 C 211.05 151.52 210.72 150.27 210.16 149.12 C 210.05 148.93 209.81 148.84 209.61 148.95 C 209.41 149.04 209.33 149.29 209.43 149.48 Z M 210.97 154.77 C 211.09 154.12 211.13 153.45 211.1 152.79 C 211.09 152.57 210.9 152.4 210.68 152.41 C 210.46 152.42 210.29 152.61 210.29 152.83 C 210.32 153.46 210.27 154.09 210.16 154.71 C 210.18 154.71 210.21 154.71 210.23 154.71 C 210.48 154.72 210.73 154.73 210.97 154.77 Z M 210.97 154.77 "/><path style="stroke:none;fill-rule:nonzero;fill:currentColor;fill-opacity:1;" transform="matrix(0.74108,0.00000,0.00000,0.74108,-137.670,-98.529)" d="M 187.2 154.76 C 188.44 154.75 189.68 154.75 190.92 154.74 C 191.14 154.74 191.32 154.56 191.32 154.33 C 191.32 154.11 191.14 153.93 190.91 153.93 C 189.67 153.94 188.43 153.94 187.19 153.95 C 186.97 153.95 186.79 154.13 186.79 154.36 C 186.79 154.58 186.97 154.76 187.2 154.76 Z M 190.92 154.74 C 191.89 154.73 192.86 154.73 193.83 154.73 C 193.84 154.45 193.88 154.18 193.97 153.92 C 192.95 153.92 191.93 153.93 190.91 153.93 C 190.69 153.93 190.51 154.11 190.51 154.34 C 190.51 154.56 190.7 154.74 190.92 154.74 Z M 210.06 154.65 C 211.12 154.65 212.19 154.64 213.25 154.64 C 213.47 154.64 213.65 154.45 213.65 154.23 C 213.65 154.01 213.47 153.83 213.25 153.83 C 212.19 153.83 211.14 153.84 210.09 153.84 C 210.09 153.87 210.09 153.89 210.09 153.92 C 210.09 153.97 210.09 154.02 210.09 154.07 C 210.09 154.12 210.1 154.16 210.1 154.21 C 210.1 154.36 210.09 154.51 210.06 154.65 Z M 213.25 154.64 C 214.49 154.63 215.73 154.62 216.97 154.62 C 217.2 154.62 217.38 154.44 217.38 154.21 C 217.37 153.99 217.19 153.81 216.96 153.81 C 215.73 153.82 214.48 153.82 213.25 153.83 C 213.02 153.83 212.84 154.01 212.84 154.23 C 212.84 154.46 213.02 154.64 213.25 154.64 Z M 213.25 154.64 "/></svg>
