<svg xmlns="http://www.w3.org/2000/svg" viewBox="0 0 24 24" fill="none" stroke="currentColor" stroke-width="1.4" stroke-linecap="round" stroke-linejoin="round"><path d="M18.58 5.42C18.77 5.46 19.38 5.53 19.69 5.65C20 5.77 20.23 5.94 20.45 6.15C20.67 6.35 20.87 6.61 21 6.89C21.14 7.16 21.24 6.25 21.26 7.8C21.28 9.35 21.19 14.65 21.13 16.2C21.08 17.75 21.04 16.81 20.92 17.08C20.79 17.34 20.61 17.6 20.4 17.8C20.19 18.01 19.94 18.19 19.67 18.31C19.41 18.44 21.21 18.51 18.8 18.56C16.39 18.6 7.62 18.61 5.2 18.59C2.78 18.57 4.56 18.56 4.27 18.46C3.98 18.35 3.69 18.16 3.46 17.94C3.24 17.72 3.06 17.43 2.94 17.14C2.82 16.85 2.75 17.76 2.74 16.2C2.73 14.65 2.83 9.35 2.88 7.8C2.92 6.25 2.91 7.18 3.02 6.9C3.13 6.62 3.31 6.34 3.52 6.12C3.74 5.91 4.01 5.73 4.29 5.61C4.57 5.49 5.05 5.44 5.2 5.41C5.35 5.38 5.04 5.42 5.2 5.41C5.36 5.4 5.83 5.38 6.15 5.36C6.46 5.34 6.78 5.31 7.09 5.29C7.41 5.27 7.72 5.25 8.04 5.25C8.36 5.24 8.67 5.24 8.99 5.26C9.3 5.27 9.62 5.3 9.93 5.32C10.25 5.35 10.56 5.38 10.88 5.4C11.2 5.43 11.51 5.45 11.83 5.46C12.14 5.47 12.46 5.48 12.77 5.48C13.09 5.48 13.4 5.47 13.72 5.47C14.04 5.46 14.35 5.46 14.67 5.46C14.98 5.46 15.3 5.47 15.61 5.48C15.93 5.49 16.24 5.5 16.56 5.5C16.88 5.51 17.19 5.51 17.51 5.5C17.82 5.49 18.1 5.47 18.45 5.44C18.8 5.42 19.42 5.35 19.61 5.34"/><path d="M3.27 7.36C3.44 7.48 3.99 7.86 4.29 8.06C4.6 8.26 4.83 8.4 5.09 8.57C5.36 8.74 5.63 8.91 5.9 9.08C6.16 9.26 6.42 9.43 6.68 9.61C6.95 9.79 7.2 9.98 7.46 10.16C7.71 10.35 7.97 10.54 8.22 10.73C8.47 10.92 8.73 11.11 8.98 11.3C9.24 11.48 9.49 11.67 9.75 11.85C10.01 12.04 10.27 12.22 10.52 12.41C10.78 12.59 11.04 12.77 11.29 12.96C11.54 13.15 11.93 13.44 12.04 13.54C12.15 13.64 11.84 13.63 11.96 13.54C12.07 13.45 12.48 13.19 12.75 13.02C13.02 12.84 13.29 12.68 13.55 12.51C13.82 12.34 14.09 12.17 14.36 12C14.62 11.83 14.89 11.65 15.15 11.47C15.41 11.29 15.66 11.1 15.91 10.9C16.16 10.71 16.4 10.51 16.64 10.3C16.89 10.1 17.13 9.89 17.37 9.68C17.61 9.48 17.85 9.27 18.09 9.07C18.34 8.87 18.58 8.67 18.83 8.47C19.08 8.28 19.31 8.11 19.59 7.9C19.87 7.7 20.34 7.35 20.49 7.24"/></svg>
