<svg xmlns="http://www.w3.org/2000/svg" viewBox="0 0 24 24" fill="none" stroke="currentColor" stroke-width="1.4" stroke-linecap="round" stroke-linejoin="round"><path d="M6.61 10.39C6.81 10.39 7.45 10.35 7.78 10.36C8.11 10.38 8.33 10.42 8.6 10.48C8.86 10.54 9.12 10.62 9.37 10.72C9.62 10.82 9.87 10.94 10.1 11.08C10.33 11.22 10.55 11.37 10.76 11.54C10.97 11.71 11.16 11.89 11.34 12.09C11.52 12.29 11.69 12.51 11.83 12.73C11.97 12.96 12.1 13.2 12.2 13.45C12.3 13.7 12.38 13.96 12.43 14.22C12.49 14.49 12.52 14.76 12.53 15.03C12.53 15.29 12.51 15.57 12.47 15.83C12.43 16.09 12.37 16.36 12.28 16.61C12.2 16.87 12.1 17.11 11.98 17.35C11.85 17.59 11.71 17.82 11.56 18.04C11.4 18.25 11.23 18.46 11.04 18.66C10.85 18.85 10.65 19.03 10.43 19.19C10.21 19.36 9.98 19.51 9.73 19.63C9.49 19.76 9.23 19.87 8.96 19.95C8.7 20.03 8.42 20.08 8.14 20.11C7.87 20.14 7.58 20.14 7.3 20.12C7.02 20.09 6.74 20.04 6.47 19.96C6.2 19.88 5.94 19.77 5.69 19.65C5.44 19.52 5.2 19.37 4.98 19.2C4.76 19.03 4.55 18.84 4.37 18.64C4.18 18.44 4 18.22 3.85 17.99C3.69 17.77 3.56 17.53 3.44 17.28C3.32 17.03 3.23 16.77 3.15 16.51C3.08 16.24 3.02 15.97 3 15.7C2.97 15.42 2.96 15.14 2.98 14.87C3 14.6 3.05 14.32 3.12 14.06C3.19 13.8 3.29 13.54 3.41 13.29C3.53 13.05 3.67 12.81 3.83 12.6C3.99 12.38 4.17 12.17 4.36 11.99C4.55 11.8 4.76 11.63 4.98 11.48C5.2 11.33 5.43 11.19 5.66 11.08C5.9 10.96 6.15 10.86 6.4 10.77C6.65 10.69 6.88 10.63 7.17 10.58C7.45 10.53 7.96 10.5 8.11 10.49"/><path d="M11.14 11.79C11.26 11.67 11.62 11.28 11.84 11.05C12.07 10.82 12.27 10.61 12.49 10.4C12.71 10.19 12.94 9.99 13.16 9.78C13.39 9.58 13.62 9.38 13.85 9.18C14.08 8.98 14.32 8.78 14.55 8.58C14.78 8.38 15.01 8.18 15.24 7.98C15.47 7.78 15.69 7.57 15.92 7.37C16.14 7.16 16.36 6.95 16.58 6.73C16.79 6.52 17.01 6.3 17.22 6.09C17.43 5.87 17.65 5.65 17.86 5.43C18.07 5.21 18.28 4.99 18.49 4.77C18.71 4.56 18.92 4.34 19.13 4.12C19.35 3.9 19.55 3.7 19.78 3.47C20.01 3.25 20.38 2.87 20.51 2.75"/><path d="M15.12 4.71C15.29 4.85 15.84 5.31 16.13 5.57C16.42 5.82 16.63 6.01 16.86 6.24C17.1 6.47 17.31 6.68 17.56 6.94C17.81 7.2 18.25 7.66 18.38 7.8"/><path d="M17.66 2.26C17.81 2.43 18.3 2.95 18.57 3.23C18.83 3.52 19.01 3.72 19.24 3.96C19.46 4.2 19.66 4.41 19.92 4.68C20.18 4.95 20.66 5.42 20.81 5.57"/><path d="M15.55 13.64C15.57 13.82 15.64 14.36 15.66 14.68C15.68 14.99 15.68 15.25 15.67 15.53C15.66 15.81 15.65 16.1 15.62 16.38C15.59 16.67 15.55 16.95 15.5 17.23C15.44 17.52 15.38 17.8 15.29 18.08C15.21 18.35 15.11 18.63 14.99 18.9C14.88 19.16 14.74 19.43 14.59 19.68C14.44 19.93 14.27 20.17 14.08 20.4C13.9 20.62 13.71 20.82 13.48 21.04C13.24 21.25 12.8 21.58 12.67 21.69"/><path d="M18.76 15.35C18.74 15.53 18.67 16.11 18.62 16.43C18.57 16.75 18.51 16.99 18.45 17.27C18.39 17.55 18.32 17.82 18.25 18.1C18.18 18.37 18.1 18.65 18.02 18.92C17.93 19.19 17.85 19.46 17.74 19.73C17.64 20 17.53 20.26 17.4 20.52C17.27 20.78 17.16 20.99 16.98 21.27C16.79 21.56 16.4 22.08 16.28 22.24"/><path d="M6.21 16.54C6.14 16.34 5.88 15.71 5.84 15.37C5.79 15.04 5.86 14.79 5.96 14.53C6.05 14.27 6.22 14.01 6.42 13.82C6.61 13.62 6.87 13.46 7.13 13.35C7.39 13.25 7.65 13.19 7.97 13.21C8.3 13.23 8.88 13.44 9.06 13.49" stroke-width="1.09"/></svg>
