<svg xmlns="http://www.w3.org/2000/svg" viewBox="0 0 24 24" fill="none"><path style="fill:none;stroke-width:2.204;stroke-linecap:round;stroke-linejoin:round;stroke:currentColor;stroke-opacity:1;" transform="matrix(0.52183,0.00000,0.00000,0.52183,-354.743,-602.775)" d="M 696.16 1160.72 C 696.3 1160.72 696.48 1160.66 696.71 1160.53 C 696.94 1160.41 697.15 1160.31 697.35 1160.24 C 697.55 1160.18 697.75 1160.12 697.98 1160.08 C 698.19 1160.03 698.43 1159.99 698.7 1159.96 C 698.97 1159.93 699.28 1159.88 699.64 1159.8 C 700 1159.73 700.26 1159.68 700.41 1159.64 C 700.56 1159.6 700.75 1159.58 700.98 1159.57 C 701.22 1159.56 701.71 1159.56 702.47 1159.56 C 703.23 1159.56 703.76 1159.57 704.07 1159.6 C 704.37 1159.63 704.65 1159.67 704.91 1159.73 C 705.16 1159.78 705.4 1159.82 705.63 1159.85 C 705.86 1159.89 706.02 1159.93 706.12 1159.96 C 706.28 1160.01 706.37 1160.11 706.41 1160.23 "/><path style="fill:none;stroke-width:2.204;stroke-linecap:round;stroke-linejoin:round;stroke:currentColor;stroke-opacity:1;" transform="matrix(0.52183,0.00000,0.00000,0.52183,-354.743,-602.775)" d="M 696.08 1160.38 L 696.08 1165.16 "/><path style="fill:none;stroke-width:2.204;stroke-linecap:round;stroke-linejoin:round;stroke:currentColor;stroke-opacity:1;" transform="matrix(0.52183,0.00000,0.00000,0.52183,-354.743,-602.775)" d="M 707.55 1160.41 L 707.55 1165.34 "/><path style="fill:none;stroke-width:2.204;stroke-linecap:round;stroke-linejoin:round;stroke:currentColor;stroke-opacity:1;" transform="matrix(0.52183,0.00000,0.00000,0.52183,-354.743,-602.775)" d="M 717.28 1165.48 L 712.93 1167.45 "/><path style="fill:none;stroke-width:2.204;stroke-linecap:round;stroke-linejoin:round;stroke:currentColor;stroke-opacity:1;" transform="matrix(0.52183,0.00000,0.00000,0.52183,-354.743,-602.775)" d="M 692.29 1168.79 C 692.28 1168.7 692.33 1168.59 692.45 1168.46 C 692.58 1168.33 692.7 1168.21 692.79 1168.13 C 692.88 1168.04 693.02 1167.92 693.2 1167.77 C 693.39 1167.62 693.56 1167.48 693.72 1167.37 C 693.88 1167.25 694.12 1167.1 694.41 1166.92 C 694.71 1166.75 695.01 1166.58 695.32 1166.43 C 695.62 1166.27 695.9 1166.15 696.15 1166.06 C 696.4 1165.96 696.66 1165.88 696.95 1165.8 C 697.24 1165.73 697.52 1165.66 697.8 1165.58 C 698.08 1165.5 698.33 1165.45 698.57 1165.42 C 698.81 1165.4 699.04 1165.38 699.29 1165.38 C 699.53 1165.38 699.74 1165.37 699.93 1165.36 C 700.11 1165.35 700.23 1165.35 700.3 1165.33 C 700.39 1165.3 700.44 1165.27 700.44 1165.21 "/><path style="fill:none;stroke-width:2.204;stroke-linecap:round;stroke-linejoin:round;stroke:currentColor;stroke-opacity:1;" transform="matrix(0.52183,0.00000,0.00000,0.52183,-354.743,-602.775)" d="M 687.61 1166.94 L 692.23 1168.64 "/><path style="fill:none;stroke-width:2.204;stroke-linecap:round;stroke-linejoin:round;stroke:currentColor;stroke-opacity:1;" transform="matrix(0.52183,0.00000,0.00000,0.52183,-354.743,-602.775)" d="M 707.21 1165.7 C 707.48 1165.68 707.76 1165.71 708.04 1165.78 C 708.23 1165.83 708.51 1165.93 708.9 1166.08 C 709.28 1166.22 709.61 1166.36 709.9 1166.5 C 710.19 1166.64 710.4 1166.74 710.54 1166.81 C 710.68 1166.88 710.81 1166.96 710.93 1167.04 C 711.05 1167.12 711.23 1167.25 711.44 1167.44 C 711.66 1167.62 711.93 1167.88 712.23 1168.23 C 712.54 1168.57 712.77 1168.86 712.93 1169.1 C 713.1 1169.33 713.22 1169.51 713.31 1169.65 C 713.4 1169.79 713.48 1169.94 713.58 1170.1 C 713.66 1170.27 713.74 1170.4 713.78 1170.51 C 713.82 1170.62 713.86 1170.72 713.89 1170.83 C 713.93 1170.95 713.97 1171.12 714.03 1171.35 C 714.12 1171.7 714.18 1171.99 714.23 1172.23 "/><path style="fill:none;stroke-width:2.204;stroke-linecap:round;stroke-linejoin:round;stroke:currentColor;stroke-opacity:1;" transform="matrix(0.52183,0.00000,0.00000,0.52183,-354.743,-602.775)" d="M 717 1165.71 C 717.06 1165.83 717.19 1165.97 717.4 1166.12 C 717.61 1166.28 717.79 1166.44 717.93 1166.59 C 718.07 1166.74 718.21 1166.91 718.34 1167.09 C 718.47 1167.27 718.6 1167.48 718.74 1167.71 C 718.88 1167.94 719.06 1168.2 719.27 1168.49 C 719.49 1168.8 719.64 1169 719.74 1169.13 C 719.83 1169.25 719.93 1169.42 720.03 1169.63 C 720.14 1169.84 720.35 1170.28 720.66 1170.98 C 720.97 1171.67 721.18 1172.16 721.28 1172.45 C 721.38 1172.74 721.46 1173.01 721.51 1173.27 C 721.57 1173.52 721.62 1173.76 721.69 1173.98 C 721.74 1174.19 721.78 1174.37 721.79 1174.47 C 721.81 1174.63 721.77 1174.76 721.67 1174.85 "/><path style="fill:none;stroke-width:2.204;stroke-linecap:round;stroke-linejoin:round;stroke:currentColor;stroke-opacity:1;" transform="matrix(0.52183,0.00000,0.00000,0.52183,-354.743,-602.775)" d="M 683.98 1177.74 C 684.03 1177.61 684.03 1177.42 683.99 1177.16 C 683.94 1176.9 683.93 1176.67 683.94 1176.46 C 683.94 1176.25 683.97 1176.04 683.99 1175.82 C 684.03 1175.59 684.07 1175.36 684.14 1175.09 C 684.2 1174.83 684.26 1174.52 684.32 1174.16 C 684.37 1173.79 684.4 1173.53 684.42 1173.38 C 684.45 1173.23 684.49 1173.03 684.56 1172.82 C 684.63 1172.6 684.8 1172.13 685.06 1171.41 C 685.32 1170.7 685.51 1170.21 685.65 1169.93 C 685.78 1169.65 685.92 1169.4 686.05 1169.18 C 686.19 1168.96 686.32 1168.75 686.42 1168.55 C 686.53 1168.35 686.63 1168.21 686.7 1168.12 C 686.8 1167.99 686.91 1167.94 687.05 1167.94 "/><path style="fill:none;stroke-width:2.204;stroke-linecap:round;stroke-linejoin:round;stroke:currentColor;stroke-opacity:1;" transform="matrix(0.52183,0.00000,0.00000,0.52183,-354.743,-602.775)" d="M 721.97 1175.96 L 717.48 1177.98 "/><path style="fill:none;stroke-width:1.915;stroke-linecap:round;stroke-linejoin:round;stroke:currentColor;stroke-opacity:1;" transform="matrix(0.52183,0.00000,0.00000,0.52183,-354.743,-602.775)" d="M 710.32 1180.53 C 709.17 1184.78 704.77 1187.29 700.52 1186.13 C 696.27 1184.97 693.76 1180.58 694.92 1176.32 C 696.08 1172.07 700.47 1169.56 704.72 1170.72 C 708.97 1171.89 711.48 1176.27 710.32 1180.53 Z M 710.32 1180.53 "/><path style="fill:none;stroke-width:2.204;stroke-linecap:round;stroke-linejoin:round;stroke:currentColor;stroke-opacity:1;" transform="matrix(0.52183,0.00000,0.00000,0.52183,-354.743,-602.775)" d="M 683.64 1177.7 L 688.12 1179.34 "/><path style="fill:none;stroke-width:2.204;stroke-linecap:round;stroke-linejoin:round;stroke:currentColor;stroke-opacity:1;" transform="matrix(0.52183,0.00000,0.00000,0.52183,-354.743,-602.775)" d="M 690.79 1185.49 C 690.64 1185.09 690.46 1184.58 690.27 1184 C 690.14 1183.62 690.04 1183.32 689.97 1183.12 C 689.91 1182.92 689.83 1182.63 689.73 1182.28 C 689.63 1181.92 689.53 1181.51 689.42 1181.06 C 689.31 1180.6 689.24 1180.23 689.19 1179.95 C 689.13 1179.67 689.09 1179.37 689.06 1179.08 C 689.03 1178.78 689.02 1178.43 689.02 1178.04 C 689.02 1177.65 689.01 1177.34 689.01 1177.12 C 689.01 1176.9 689.01 1176.73 689.02 1176.64 C 689.02 1176.54 689.06 1176.37 689.11 1176.13 C 689.17 1175.89 689.23 1175.69 689.29 1175.52 C 689.36 1175.35 689.39 1175.25 689.39 1175.22 L 689.39 1175.2 L 689.39 1175.26 "/><path style="fill:none;stroke-width:2.204;stroke-linecap:round;stroke-linejoin:round;stroke:currentColor;stroke-opacity:1;" transform="matrix(0.52183,0.00000,0.00000,0.52183,-354.743,-602.775)" d="M 716.7 1177.88 C 716.7 1177.84 716.7 1177.82 716.7 1177.82 L 716.7 1177.83 C 716.7 1177.84 716.7 1177.97 716.68 1178.21 C 716.67 1178.45 716.65 1178.67 716.62 1178.88 C 716.59 1179.09 716.54 1179.31 716.48 1179.54 C 716.42 1179.77 716.35 1180 716.26 1180.24 C 716.17 1180.48 716.07 1180.7 715.97 1180.92 C 715.87 1181.14 715.71 1181.44 715.5 1181.85 C 715.29 1182.25 715.11 1182.61 714.94 1182.94 C 714.78 1183.26 714.62 1183.56 714.48 1183.82 C 714.33 1184.09 714.22 1184.28 714.13 1184.41 C 714.04 1184.53 713.96 1184.66 713.86 1184.77 C 713.77 1184.89 713.54 1185.13 713.19 1185.49 C 712.83 1185.86 712.53 1186.17 712.29 1186.41 C 712.04 1186.65 711.9 1186.77 711.89 1186.77 C 711.86 1186.76 711.88 1186.73 711.93 1186.66 "/><path style="fill:none;stroke-width:2.204;stroke-linecap:round;stroke-linejoin:round;stroke:currentColor;stroke-opacity:1;" transform="matrix(0.52183,0.00000,0.00000,0.52183,-354.743,-602.775)" d="M 719.16 1187.98 L 716.12 1184.3 "/><path style="fill:none;stroke-width:2.204;stroke-linecap:round;stroke-linejoin:round;stroke:currentColor;stroke-opacity:1;" transform="matrix(0.52183,0.00000,0.00000,0.52183,-354.743,-602.775)" d="M 687.96 1189.88 L 690.86 1185.9 "/><path style="fill:none;stroke-width:2.204;stroke-linecap:round;stroke-linejoin:round;stroke:currentColor;stroke-opacity:1;" transform="matrix(0.52183,0.00000,0.00000,0.52183,-354.743,-602.775)" d="M 694.98 1189.9 C 694.92 1189.88 694.89 1189.9 694.9 1189.95 C 694.91 1189.98 694.97 1190.04 695.1 1190.14 C 695.24 1190.23 695.39 1190.33 695.56 1190.44 C 695.72 1190.55 695.89 1190.64 696.04 1190.71 C 696.18 1190.79 696.39 1190.87 696.64 1190.96 C 696.9 1191.04 697.11 1191.12 697.28 1191.2 C 697.45 1191.27 697.63 1191.33 697.84 1191.36 C 698.05 1191.4 698.3 1191.45 698.59 1191.52 C 698.87 1191.59 699.09 1191.64 699.24 1191.67 C 699.39 1191.7 699.58 1191.73 699.82 1191.75 C 700.06 1191.78 700.25 1191.82 700.39 1191.85 C 700.54 1191.89 700.69 1191.92 700.85 1191.93 C 701.01 1191.96 701.29 1191.96 701.68 1191.96 C 702.08 1191.96 702.43 1191.95 702.74 1191.9 C 703.04 1191.87 703.32 1191.83 703.55 1191.78 C 703.79 1191.73 704.05 1191.67 704.34 1191.59 C 704.62 1191.51 704.89 1191.44 705.15 1191.36 C 705.56 1191.25 705.79 1191.12 705.86 1191.01 "/><path style="fill:none;stroke-width:2.204;stroke-linecap:round;stroke-linejoin:round;stroke:currentColor;stroke-opacity:1;" transform="matrix(0.52183,0.00000,0.00000,0.52183,-354.743,-602.775)" d="M 718.88 1187.77 C 718.78 1187.86 718.68 1188.03 718.58 1188.27 C 718.48 1188.51 718.38 1188.73 718.27 1188.9 C 718.16 1189.08 718.03 1189.25 717.89 1189.42 C 717.76 1189.6 717.59 1189.78 717.41 1189.98 C 717.22 1190.17 717.01 1190.41 716.78 1190.69 C 716.55 1190.98 716.39 1191.18 716.29 1191.31 C 716.19 1191.43 716.06 1191.58 715.89 1191.73 C 715.72 1191.88 715.34 1192.2 714.75 1192.69 C 714.17 1193.17 713.75 1193.5 713.49 1193.67 C 713.23 1193.84 713 1193.98 712.77 1194.11 C 712.54 1194.23 712.32 1194.34 712.12 1194.46 C 711.93 1194.58 711.78 1194.66 711.68 1194.69 C 711.53 1194.76 711.39 1194.74 711.28 1194.67 "/><path style="fill:none;stroke-width:2.204;stroke-linecap:round;stroke-linejoin:round;stroke:currentColor;stroke-opacity:1;" transform="matrix(0.52183,0.00000,0.00000,0.52183,-354.743,-602.775)" d="M 710.29 1195.25 L 707.16 1191.45 "/><path style="fill:none;stroke-width:2.204;stroke-linecap:round;stroke-linejoin:round;stroke:currentColor;stroke-opacity:1;" transform="matrix(0.52183,0.00000,0.00000,0.52183,-354.743,-602.775)" d="M 697.34 1196.34 C 697.23 1196.26 697.05 1196.21 696.79 1196.17 C 696.53 1196.14 696.3 1196.09 696.1 1196.03 C 695.9 1195.96 695.7 1195.88 695.49 1195.8 C 695.29 1195.71 695.08 1195.59 694.84 1195.46 C 694.61 1195.32 694.33 1195.18 693.99 1195.03 C 693.66 1194.88 693.42 1194.77 693.27 1194.71 C 693.13 1194.65 692.96 1194.55 692.77 1194.43 C 692.58 1194.3 692.18 1194.01 691.56 1193.56 C 690.94 1193.12 690.53 1192.79 690.29 1192.59 C 690.06 1192.38 689.86 1192.18 689.69 1191.99 C 689.51 1191.8 689.35 1191.62 689.19 1191.46 C 689.02 1191.3 688.91 1191.17 688.84 1191.08 C 688.75 1190.95 688.73 1190.82 688.78 1190.69 "/><path style="fill:none;stroke-width:2.204;stroke-linecap:round;stroke-linejoin:round;stroke:currentColor;stroke-opacity:1;" transform="matrix(0.52183,0.00000,0.00000,0.52183,-354.743,-602.775)" d="M 697.21 1196.67 L 700.03 1192.81 "/></svg>
